<?xml version="1.0" encoding="utf-8"?>
<!-- Generator: Adobe Illustrator 21.0.2, SVG Export Plug-In . SVG Version: 6.00 Build 0)  -->
<svg version="1.1" id="Layer_1" xmlns="http://www.w3.org/2000/svg" xmlns:xlink="http://www.w3.org/1999/xlink" x="0px" y="0px"
	 viewBox="0 0 496.2 217.6" style="enable-background:new 0 0 496.2 217.6;" xml:space="preserve">
<style type="text/css">
	.st0{fill:#532D6D;}
</style>
<g>
	<path class="st0" d="M232.8,61.3V49.8h-11.2v11.5h-3.3V35.9h3.3v10.9h11.2V35.9h3.3v25.4H232.8z"/>
	<path class="st0" d="M244.6,42.7v14.2c0,1.2,0.6,1.7,1.8,1.7c1.4,0,4.2-0.8,6.2-1.9v-14h3.2v18.5h-2.6l-0.3-1.6c-2.1,1-5.3,2-7.5,2
		c-3,0-4-1.9-4-4.7V42.7H244.6z"/>
	<path class="st0" d="M284.3,61.3V47.1c0-1.2-0.6-1.7-1.8-1.7c-1.5,0-4.2,0.8-6.2,1.9v14h-3.2V47.1c0-1.2-0.6-1.7-1.8-1.7
		c-1.4,0-4.2,0.8-6.2,1.9v14h-3.2V42.7h2.6l0.3,1.6c2.1-1,5.3-2,7.5-2c1.9,0,3,0.7,3.5,2c2.2-1.1,5.3-2,7.7-2c3,0,4,1.9,4,4.7v14.2
		H284.3z"/>
	<path class="st0" d="M306.5,61.3h-2.7l-0.2-1.4c-1.6,1.1-3.8,1.8-6,1.8c-3.5,0-4.9-2.1-4.9-5.3c0-3.8,1.9-5.2,5.7-5.2h4.9v-2.9
		c0-2.3-1-3.1-4-3.1c-1.8,0-4.1,0.3-5.6,0.6l-0.3-2.6c1.8-0.5,4.1-0.8,6.1-0.8c5.3,0,7,2.1,7,6V61.3z M303.3,53.8h-4.7
		c-2,0-2.7,0.6-2.7,2.5c0,1.9,0.3,2.7,2.6,2.7c1.6,0,3.4-0.6,4.8-1.5V53.8z"/>
	<path class="st0" d="M323.3,61.3V47.1c0-1.2-0.6-1.7-1.8-1.7c-1.4,0-4.2,0.8-6.2,1.9v14h-3.2V42.7h2.6l0.3,1.6c2.1-1,5.3-2,7.5-2
		c3,0,4,1.9,4,4.7v14.2H323.3z"/>
	<path class="st0" d="M350.3,52.1h-6.2v9.2h-3.3V35.9h9.7c5.4,0,7.3,2.4,7.3,6.2v3.7c0,3-1.1,5.1-4,5.9l6.6,9.6h-3.8L350.3,52.1z
		 M350.4,38.8h-6.3v10.4h6.3c3.1,0,4.2-0.9,4.2-3.4v-3.7C354.6,39.7,353.5,38.8,350.4,38.8z"/>
	<path class="st0" d="M370.3,58.9c1.8,0,3.8-0.3,5.9-0.9l0.4,2.6c-1.8,0.6-4.2,1.1-6.5,1.1c-5.5,0-7.3-2.6-7.3-6.8v-5.6
		c0-3.8,1.8-6.9,7.3-6.9c5.5,0,7,3.2,7,7v3.9h-11v1.6C365.9,57.7,366.7,58.9,370.3,58.9z M365.9,50.6h8V49c0-2.6-0.9-4-3.9-4
		s-4.1,1.4-4.1,4V50.6z"/>
	<path class="st0" d="M387.1,61.6c-1.9,0-4.4-0.4-5.9-1l0.4-2.5c1.6,0.5,3.7,0.8,5.3,0.8c2.9,0,3.4-0.5,3.4-2.5s-0.2-2.2-3.9-3.1
		c-4.6-1.1-5-2.1-5-5.9c0-3.4,1.5-5,6.4-5c1.8,0,3.7,0.2,5.3,0.6l-0.2,2.6c-1.6-0.3-3.6-0.5-5.1-0.5c-2.7,0-3.1,0.6-3.1,2.3
		c0,2.1,0,2.4,3.2,3.2c5.3,1.3,5.7,2,5.7,5.7C393.5,59.9,392.4,61.6,387.1,61.6z"/>
	<path class="st0" d="M405.3,61.6c-5.4,0-7.5-3.1-7.5-7v-5.4c0-3.9,2.1-7,7.5-7s7.5,3.1,7.5,7v5.4C412.8,58.5,410.7,61.6,405.3,61.6
		z M405.3,45.1c-2.9,0-4.3,1.4-4.3,4.1v5.6c0,2.7,1.4,4.1,4.3,4.1s4.3-1.4,4.3-4.1v-5.6C409.6,46.5,408.2,45.1,405.3,45.1z"/>
	<path class="st0" d="M421,42.7v14.2c0,1.2,0.6,1.7,1.8,1.7c1.4,0,4.2-0.8,6.2-1.9v-14h3.2v18.5h-2.6l-0.3-1.6c-2.1,1-5.3,2-7.5,2
		c-3,0-4-1.9-4-4.7V42.7H421z"/>
	<path class="st0" d="M446.7,45.3c-1.8,0.8-3.8,2.1-5.3,3.2v12.8h-3.2V42.7h2.8l0.2,2.6c1.4-1.1,3.3-2.2,5.1-3L446.7,45.3z"/>
	<path class="st0" d="M449.7,54.9v-5.8c0-4.3,1.6-6.7,7.4-6.7c1.6,0,3.5,0.3,4.4,0.6l-0.3,2.7c-1.4-0.3-2.8-0.4-4.1-0.4
		c-3.2,0-4.3,0.9-4.3,3.8V55c0,2.9,1.1,3.8,4.3,3.8c1.3,0,2.6-0.1,4.1-0.4l0.3,2.7c-1,0.3-2.8,0.6-4.5,0.6
		C451.1,61.6,449.7,59.2,449.7,54.9z"/>
	<path class="st0" d="M473,58.9c1.8,0,3.8-0.3,5.9-0.9l0.4,2.6c-1.8,0.6-4.2,1.1-6.5,1.1c-5.5,0-7.3-2.6-7.3-6.8v-5.6
		c0-3.8,1.8-6.9,7.3-6.9c5.5,0,7,3.2,7,7v3.9h-11v1.6C468.6,57.7,469.4,58.9,473,58.9z M468.6,50.6h8V49c0-2.6-0.9-4-3.9-4
		s-4.1,1.4-4.1,4V50.6z"/>
	<path class="st0" d="M489.8,61.6c-1.9,0-4.4-0.4-5.9-1l0.4-2.5c1.6,0.5,3.7,0.8,5.3,0.8c2.9,0,3.4-0.5,3.4-2.5s-0.2-2.2-3.9-3.1
		c-4.6-1.1-5-2.1-5-5.9c0-3.4,1.5-5,6.4-5c1.8,0,3.7,0.2,5.3,0.6l-0.2,2.6c-1.6-0.3-3.6-0.5-5.1-0.5c-2.7,0-3.1,0.6-3.1,2.3
		c0,2.1,0,2.4,3.2,3.2c5.3,1.3,5.7,2,5.7,5.7C496.2,59.9,495.1,61.6,489.8,61.6z"/>
	<path class="st0" d="M218.3,81.6h9.2c5.4,0,7.3,2.4,7.3,6.2v3.8c0,3.9-1.9,6.3-7.3,6.3h-5.9v9.1h-3.3V81.6z M227.3,84.5h-5.8V95
		h5.8c3.1,0,4.2-0.9,4.2-3.4v-3.7C231.5,85.4,230.5,84.5,227.3,84.5z"/>
	<path class="st0" d="M247,91c-1.8,0.8-3.8,2.1-5.3,3.2v12.8h-3.2V88.4h2.8l0.2,2.6c1.4-1.1,3.3-2.2,5.1-3L247,91z"/>
	<path class="st0" d="M256.9,107.3c-5.4,0-7.5-3.1-7.5-7V95c0-3.9,2.1-7,7.5-7s7.5,3.1,7.5,7v5.4
		C264.4,104.2,262.3,107.3,256.9,107.3z M256.9,90.8c-2.9,0-4.3,1.4-4.3,4.1v5.6c0,2.7,1.4,4.1,4.3,4.1s4.3-1.4,4.3-4.1v-5.6
		C261.2,92.2,259.7,90.8,256.9,90.8z"/>
	<path class="st0" d="M279.7,83.1c-1-0.2-2.3-0.3-3.1-0.3c-2,0-2.5,0.7-2.5,2.6v3.1h5.3l-0.3,2.7h-5v15.9h-3.2V91.1h-3.3v-2.7h3.3
		V85c0-3.3,1.8-4.9,5.3-4.9c1.2,0,2.5,0.2,3.8,0.5L279.7,83.1z"/>
	<path class="st0" d="M290.1,104.6c1.8,0,3.8-0.3,5.9-0.9l0.4,2.6c-1.8,0.6-4.2,1.1-6.5,1.1c-5.5,0-7.3-2.6-7.3-6.8V95
		c0-3.8,1.8-6.9,7.3-6.9c5.5,0,7,3.2,7,7v3.9h-11v1.6C285.6,103.4,286.4,104.6,290.1,104.6z M285.6,96.2h8v-1.5c0-2.6-0.9-4-3.9-4
		s-4.1,1.4-4.1,4V96.2z"/>
	<path class="st0" d="M306.9,107.3c-1.9,0-4.4-0.4-5.9-1l0.4-2.5c1.6,0.5,3.7,0.8,5.3,0.8c2.9,0,3.4-0.5,3.4-2.5s-0.2-2.2-3.9-3.1
		c-4.6-1.1-5-2.1-5-5.9c0-3.4,1.5-5,6.4-5c1.8,0,3.7,0.2,5.3,0.6l-0.2,2.6c-1.6-0.3-3.6-0.5-5.1-0.5c-2.7,0-3.1,0.6-3.1,2.3
		c0,2.1,0,2.4,3.2,3.2c5.3,1.3,5.7,2,5.7,5.7C313.2,105.6,312.1,107.3,306.9,107.3z"/>
	<path class="st0" d="M323.6,107.3c-1.9,0-4.4-0.4-5.9-1l0.4-2.5c1.6,0.5,3.7,0.8,5.3,0.8c2.9,0,3.4-0.5,3.4-2.5s-0.2-2.2-3.9-3.1
		c-4.6-1.1-5-2.1-5-5.9c0-3.4,1.5-5,6.4-5c1.8,0,3.7,0.2,5.3,0.6l-0.2,2.6c-1.6-0.3-3.6-0.5-5.1-0.5c-2.7,0-3.1,0.6-3.1,2.3
		c0,2.1,0,2.4,3.2,3.2c5.3,1.3,5.7,2,5.7,5.7C330,105.6,328.9,107.3,323.6,107.3z"/>
	<path class="st0" d="M335.1,85.4v-4.6h3.2v4.6H335.1z M335.1,106.9V88.4h3.2v18.5H335.1z"/>
	<path class="st0" d="M351,107.3c-5.4,0-7.5-3.1-7.5-7V95c0-3.9,2.1-7,7.5-7s7.5,3.1,7.5,7v5.4C358.6,104.2,356.4,107.3,351,107.3z
		 M351,90.8c-2.9,0-4.3,1.4-4.3,4.1v5.6c0,2.7,1.4,4.1,4.3,4.1s4.3-1.4,4.3-4.1v-5.6C355.4,92.2,353.9,90.8,351,90.8z"/>
	<path class="st0" d="M374.9,106.9V92.8c0-1.2-0.6-1.7-1.8-1.7c-1.4,0-4.2,0.8-6.2,1.9v14h-3.2V88.4h2.6l0.3,1.6c2.1-1,5.3-2,7.5-2
		c3,0,4,1.9,4,4.7v14.2H374.9z"/>
	<path class="st0" d="M397.1,106.9h-2.7l-0.2-1.4c-1.6,1.1-3.8,1.8-6,1.8c-3.5,0-4.9-2.1-4.9-5.3c0-3.8,1.9-5.2,5.7-5.2h4.9v-2.9
		c0-2.3-1-3.1-4-3.1c-1.8,0-4.1,0.3-5.6,0.6l-0.3-2.6c1.8-0.5,4.1-0.8,6.1-0.8c5.3,0,7,2.1,7,6V106.9z M393.9,99.4h-4.7
		c-2,0-2.7,0.6-2.7,2.5c0,1.9,0.3,2.7,2.6,2.7c1.6,0,3.4-0.6,4.8-1.5V99.4z"/>
	<path class="st0" d="M402.8,106.9V80.8l3.2-0.5v26.6H402.8z"/>
	<path class="st0" d="M417.2,107.3c-1.9,0-4.4-0.4-5.9-1l0.4-2.5c1.6,0.5,3.7,0.8,5.3,0.8c2.9,0,3.4-0.5,3.4-2.5s-0.2-2.2-3.9-3.1
		c-4.6-1.1-5-2.1-5-5.9c0-3.4,1.5-5,6.4-5c1.8,0,3.7,0.2,5.3,0.6l-0.2,2.6c-1.6-0.3-3.6-0.5-5.1-0.5c-2.7,0-3.1,0.6-3.1,2.3
		c0,2.1,0,2.4,3.2,3.2c5.3,1.3,5.7,2,5.7,5.7C423.6,105.6,422.5,107.3,417.2,107.3z"/>
	<path class="st0" d="M237.7,152.6h-3.3l-2.1-6.1h-10.8l-2.1,6.1h-3.3l8.6-25.4h4.4L237.7,152.6z M226.9,129.6l-4.5,14h9.1
		L226.9,129.6z"/>
	<path class="st0" d="M246.9,153c-1.9,0-4.4-0.4-5.9-1l0.4-2.5c1.6,0.5,3.7,0.8,5.3,0.8c2.9,0,3.4-0.5,3.4-2.5s-0.2-2.2-3.9-3.1
		c-4.6-1.1-5-2.1-5-5.9c0-3.4,1.5-5,6.4-5c1.8,0,3.7,0.2,5.3,0.6l-0.2,2.6c-1.6-0.3-3.6-0.5-5.1-0.5c-2.7,0-3.1,0.6-3.1,2.3
		c0,2.1,0,2.4,3.2,3.2c5.3,1.3,5.7,2,5.7,5.7C253.3,151.3,252.2,153,246.9,153z"/>
	<path class="st0" d="M263.6,153c-1.9,0-4.4-0.4-5.9-1l0.4-2.5c1.6,0.5,3.7,0.8,5.3,0.8c2.9,0,3.4-0.5,3.4-2.5s-0.2-2.2-3.9-3.1
		c-4.6-1.1-5-2.1-5-5.9c0-3.4,1.5-5,6.4-5c1.8,0,3.7,0.2,5.3,0.6l-0.2,2.6c-1.6-0.3-3.6-0.5-5.1-0.5c-2.7,0-3.1,0.6-3.1,2.3
		c0,2.1,0,2.4,3.2,3.2c5.3,1.3,5.7,2,5.7,5.7C270,151.3,268.9,153,263.6,153z"/>
	<path class="st0" d="M281.8,153c-5.4,0-7.5-3.1-7.5-7v-5.4c0-3.9,2.1-7,7.5-7s7.5,3.1,7.5,7v5.4C289.3,149.9,287.2,153,281.8,153z
		 M281.8,136.5c-2.9,0-4.3,1.4-4.3,4.1v5.6c0,2.7,1.4,4.1,4.3,4.1s4.3-1.4,4.3-4.1v-5.6C286.1,137.9,284.7,136.5,281.8,136.5z"/>
	<path class="st0" d="M293.3,146.3v-5.8c0-4.3,1.6-6.7,7.4-6.7c1.6,0,3.5,0.3,4.4,0.6l-0.3,2.7c-1.4-0.3-2.8-0.4-4.1-0.4
		c-3.2,0-4.3,0.9-4.3,3.8v6.1c0,2.9,1.1,3.8,4.3,3.8c1.3,0,2.6-0.1,4.1-0.4l0.3,2.7c-1,0.3-2.8,0.6-4.5,0.6
		C294.8,153,293.3,150.5,293.3,146.3z"/>
	<path class="st0" d="M310.1,131.1v-4.6h3.2v4.6H310.1z M310.1,152.6v-18.5h3.2v18.5H310.1z"/>
	<path class="st0" d="M332.5,152.6h-2.7l-0.2-1.4c-1.6,1.1-3.8,1.8-6,1.8c-3.5,0-4.9-2.1-4.9-5.3c0-3.8,1.9-5.2,5.7-5.2h4.9v-2.9
		c0-2.3-1-3.1-4-3.1c-1.8,0-4.1,0.3-5.6,0.6l-0.3-2.6c1.8-0.5,4.1-0.8,6.1-0.8c5.3,0,7,2.1,7,6V152.6z M329.3,145.1h-4.7
		c-2,0-2.7,0.6-2.7,2.5c0,1.9,0.3,2.7,2.6,2.7c1.6,0,3.4-0.6,4.8-1.5V145.1z"/>
	<path class="st0" d="M347.8,152.3c-1.1,0.4-2.5,0.7-3.9,0.7c-3.1,0-4.6-1.1-4.6-4.2v-12H336v-2.7h3.3v-4.6l3.2-0.5v5h5.3l-0.3,2.7
		h-5v11.5c0,1.4,0.2,2.1,1.9,2.1c0.9,0,1.8-0.2,3-0.5L347.8,152.3z"/>
	<path class="st0" d="M352.2,131.1v-4.6h3.2v4.6H352.2z M352.2,152.6v-18.5h3.2v18.5H352.2z"/>
	<path class="st0" d="M368,153c-5.4,0-7.5-3.1-7.5-7v-5.4c0-3.9,2.1-7,7.5-7s7.5,3.1,7.5,7v5.4C375.6,149.9,373.4,153,368,153z
		 M368,136.5c-2.9,0-4.3,1.4-4.3,4.1v5.6c0,2.7,1.4,4.1,4.3,4.1s4.3-1.4,4.3-4.1v-5.6C372.4,137.9,370.9,136.5,368,136.5z"/>
	<path class="st0" d="M391.9,152.6v-14.2c0-1.2-0.6-1.7-1.8-1.7c-1.4,0-4.2,0.8-6.2,1.9v14h-3.2v-18.5h2.6l0.3,1.6
		c2.1-1,5.3-2,7.5-2c3,0,4,1.9,4,4.7v14.2H391.9z"/>
</g>
<g>
	<polygon class="st0" points="168.7,35.9 168.7,167.7 188.2,130.9 176.7,29.7 46.1,0 27,35.9 	"/>
	<polygon class="st0" points="24.8,190.9 142.1,217.6 156.3,190.9 	"/>
	<polygon class="st0" points="16.5,55.6 0,86.7 11.6,187.9 16.5,189 	"/>
</g>
<g>
	<path class="st0" d="M80.7,153.2v-10.7h-9.4v10.7h-4.8v-25.4h4.8v10.4h9.4v-10.4h4.8v25.4H80.7z"/>
	<path class="st0" d="M106.4,153.2l-5.8-8.4H96v8.4h-4.8v-25.4h10.4c5.9,0,8.1,2.4,8.1,6.9v3.3c0,3-1.1,5.2-3.8,6.1l6.3,9.1H106.4z
		 M101.4,132.1H96v8.6h5.4c2.6,0,3.5-1,3.5-3.1v-2.5C104.9,133,104,132.1,101.4,132.1z"/>
	<path class="st0" d="M116,127.9h9.9c5.9,0,8,2.4,8,6.9v3.5c0,4.4-2.4,6.8-8.3,6.8h-4.9v8.2H116V127.9z M125.6,132.1h-4.8v8.7h4.8
		c2.7,0,3.5-1,3.5-3.1v-2.6C129.1,133,128.2,132.1,125.6,132.1z"/>
	<path class="st0" d="M150.9,148h-9.4l-1.6,5.3h-5l8-25.4h6.7l8,25.4h-5L150.9,148z M142.7,143.8h7l-3.5-12L142.7,143.8z"/>
</g>
</svg>
